<?xml version="1.0" encoding="UTF-8"?>
<svg width="16px" height="17px" viewBox="0 0 16 17" version="1.1" xmlns="http://www.w3.org/2000/svg" xmlns:xlink="http://www.w3.org/1999/xlink">
    <title>ico_star</title>
    <defs>
        <path d="M2.04444444,0 L9.45555556,0 C10.584671,0 11.5,0.867682662 11.5,1.93802347 L11.5,11.5614901 C11.5,12.6318309 10.584671,13.4995136 9.45555556,13.4995136 C9.17129214,13.4995136 8.89015252,13.4433194 8.63008994,13.3345195 L6.57546562,12.4749462 C6.0496221,12.2549542 5.4503779,12.2549542 4.92453438,12.4749462 L2.86991006,13.3345195 C1.83692207,13.7666807 0.629946292,13.3232043 0.174054219,12.3439871 C0.0592799212,12.0974618 0,11.8309565 0,11.5614901 L0,1.93802347 C0,0.867682662 0.915328956,0 2.04444444,0 Z" id="path-1"></path>
        <linearGradient x1="100%" y1="50%" x2="0%" y2="50%" id="linearGradient-3">
            <stop stop-color="#02B675" offset="0%"></stop>
            <stop stop-color="#00D287" offset="100%"></stop>
        </linearGradient>
        <linearGradient x1="100%" y1="50%" x2="0%" y2="50%" id="linearGradient-4">
            <stop stop-color="#00D287" offset="0%"></stop>
            <stop stop-color="#02B675" offset="100%"></stop>
        </linearGradient>
    </defs>
    <g id="个人卡片-浏览器-截图" stroke="none" stroke-width="1" fill="none" fill-rule="evenodd">
        <g id="个人卡片" transform="translate(-1160.000000, -272.000000)">
            <g id="ico_star" transform="translate(1160.000000, 272.200369)">
                <rect id="矩形" fill="#0096FF" opacity="0" x="0" y="0" width="16" height="16"></rect>
                <g id="编组-5" transform="translate(2.250000, 1.250000)">
                    <mask id="mask-2" fill="white">
                        <use xlink:href="#path-1"></use>
                    </mask>
                    <use id="蒙版" fill="#00D287" xlink:href="#path-1"></use>
                    <path d="M1.03673562,5.36145877 L7.90511107,5.36145877 C9.89051341,5.36145877 11.5,6.97094537 11.5,8.9563477 L11.5,11.1551111 C11.5,13.1405134 9.89051341,14.75 7.90511107,14.75 L1.03673562,14.75 L1.03673562,5.36145877 Z" id="矩形" fill="url(#linearGradient-3)" mask="url(#mask-2)"></path>
                    <path d="M10.4632644,5.36145877 L4.69427061,5.36145877 C2.10169654,5.36145877 1.13686838e-13,3.25976223 1.13686838e-13,0.66718816 C1.13686838e-13,-1.92538591 2.10169654,-4.02708245 4.69427061,-4.02708245 L10.4632644,-4.02708245 L10.4632644,5.36145877 Z" id="矩形备份" fill="url(#linearGradient-4)" mask="url(#mask-2)"></path>
                    <path d="M5.43720994,8.92046144 L4.38756168,9.47229419 C4.05901905,9.64501927 3.65266129,9.51870419 3.47993621,9.19016157 C3.41115618,9.05933417 3.38742189,8.9094818 3.4124077,8.76380335 L3.61287268,7.59500284 C3.65026582,7.3769841 3.57798465,7.15452552 3.41958476,7.00012379 L2.57040148,6.17237467 C2.30460492,5.91328705 2.29916624,5.48778435 2.55825386,5.22198778 C2.66142391,5.11614619 2.79660768,5.04726662 2.94287716,5.02601242 L4.11641959,4.85548672 C4.33532284,4.82367822 4.52455742,4.68619125 4.62245393,4.48783125 L5.14727806,3.42442141 C5.31154937,3.09157138 5.71454585,2.95491132 6.04739589,3.11918264 C6.17993852,3.18459634 6.28722097,3.29187879 6.35263466,3.42442141 L6.87745879,4.48783125 C6.97535531,4.68619125 7.16458988,4.82367822 7.38349314,4.85548672 L8.55703557,5.02601242 C8.92435739,5.07938741 9.17886159,5.42042955 9.1254866,5.78775137 C9.1042324,5.93402085 9.03535283,6.06920462 8.92951124,6.17237467 L8.08032796,7.00012379 C7.92192808,7.15452552 7.8496469,7.3769841 7.88704004,7.59500284 L8.08750502,8.76380335 C8.15025108,9.12964094 7.90454685,9.47707664 7.53870926,9.5398227 C7.39303081,9.56480851 7.24317844,9.54107422 7.11235105,9.47229419 L6.06270279,8.92046144 C5.86690976,8.81752696 5.63300296,8.81752696 5.43720994,8.92046144 Z" id="星形" fill="#FFFFFF" mask="url(#mask-2)"></path>
                </g>
            </g>
        </g>
    </g>
</svg>